<svg width="51" height="50" viewBox="0 0 51 50" fill="none" xmlns="http://www.w3.org/2000/svg">
<path fill-rule="evenodd" clip-rule="evenodd" d="M5.25 24.9969C5.25 24.2263 5.87472 23.6016 6.64535 23.6016H17.8081C18.2747 23.6016 18.7104 23.8347 18.9691 24.2229L22.2758 29.183H28.2242L31.5309 24.2229C31.7896 23.8347 32.2253 23.6016 32.6919 23.6016H43.8547C44.6253 23.6016 45.25 24.2263 45.25 24.9969C45.25 25.7675 44.6253 26.3923 43.8547 26.3923H33.4386L30.1319 31.3523C29.8731 31.7405 29.4375 31.9737 28.9709 31.9737H21.5291C21.0625 31.9737 20.6269 31.7405 20.3681 31.3523L17.0614 26.3923H6.64535C5.87472 26.3923 5.25 25.7675 5.25 24.9969Z" fill="black"/>
<path fill-rule="evenodd" clip-rule="evenodd" d="M16.3942 8.71875L34.1058 8.71875C35.0577 8.71926 35.9912 8.98528 36.8002 9.48691C37.6084 9.98813 38.261 10.7047 38.6846 11.5562L38.6856 11.5583L45.1023 24.3731C45.1994 24.567 45.25 24.7809 45.25 24.9978V36.1606C45.25 37.5175 44.711 38.8189 43.7515 39.7784C42.792 40.7379 41.4906 41.2769 40.1337 41.2769H10.3663C9.00936 41.2769 7.70801 40.7379 6.74852 39.7784C5.78903 38.8189 5.25 37.5175 5.25 36.1606V24.9978C5.25 24.7809 5.30056 24.567 5.39767 24.3731L11.8144 11.5583L11.8154 11.5562C12.239 10.7047 12.8916 9.98813 13.6998 9.48691C14.5088 8.98528 15.4423 8.71926 16.3942 8.71875ZM16.4128 11.5094L14.3116 12.804L8.0407 25.3276V36.1606C8.0407 36.7774 8.28571 37.3689 8.72184 37.805C9.15798 38.2412 9.7495 38.4862 10.3663 38.4862H40.1337C40.7505 38.4862 41.342 38.2412 41.7782 37.805C42.2143 37.3689 42.4593 36.7774 42.4593 36.1606V25.3276L36.1884 12.804L36.1865 12.8001C35.9939 12.4127 35.6971 12.0866 35.3294 11.8586C34.962 11.6307 34.5382 11.5098 34.1058 11.5094M16.4128 11.5094L14.3135 12.8001C14.5061 12.4127 14.8029 12.0866 15.1706 11.8586C15.538 11.6307 15.9618 11.5098 16.3942 11.5094M16.3942 11.5094H34.1058H16.3942Z" fill="black"/>
</svg>
