<svg xmlns="http://www.w3.org/2000/svg" fill="none" viewBox="0 0 36 25"><rect width="34.61" height="23.59" x=".5" y=".86" fill="#fff" stroke="#F3F3F3" rx="3.5"/><path fill="#161520" fill-rule="evenodd" d="M10.8 9.53c-.27.31-.68.56-1.1.52-.05-.42.15-.86.4-1.14.25-.32.7-.54 1.07-.56.04.43-.12.86-.38 1.18Zm.37.6c-.37-.02-.7.12-.97.22-.17.07-.32.13-.43.13-.13 0-.28-.06-.45-.13-.23-.09-.48-.2-.75-.19-.62.01-1.2.36-1.5.93-.66 1.13-.18 2.8.45 3.71.3.46.67.95 1.16.94.2-.01.36-.08.52-.14.18-.08.37-.16.67-.16.28 0 .46.07.64.15.16.07.32.14.56.14.5-.01.81-.46 1.12-.91.33-.49.48-.96.5-1.04l-.01-.01c-.11-.05-.96-.44-.96-1.5-.01-.88.67-1.32.77-1.4h.02a1.7 1.7 0 0 0-1.34-.73Zm3.46 5.55V8.87h2.53c1.3 0 2.21.9 2.21 2.24 0 1.32-.92 2.24-2.25 2.24h-1.44v2.33h-1.05Zm1.05-5.92h1.2c.91 0 1.43.49 1.43 1.35 0 .86-.52 1.35-1.43 1.35h-1.2v-2.7Zm7.14 5.1c-.27.54-.88.87-1.54.87-.97 0-1.65-.58-1.65-1.47 0-.87.66-1.37 1.87-1.45l1.3-.08v-.37c0-.56-.35-.86-1-.86-.52 0-.9.28-.98.7h-.94c.03-.89.85-1.53 1.96-1.53 1.2 0 1.97.64 1.97 1.62v3.39h-.97v-.82h-.02Zm-1.26.06c-.55 0-.9-.27-.9-.68 0-.43.33-.68.98-.72l1.17-.07v.38c0 .64-.54 1.1-1.25 1.1Zm5.46 1.03c-.42 1.19-.9 1.58-1.92 1.58-.08 0-.34 0-.4-.02v-.82l.31.02c.46 0 .72-.2.88-.71l.1-.3-1.77-4.96h1.09l1.23 4.02h.02l1.23-4.02h1.06l-1.83 5.2Z" clip-rule="evenodd"/></svg>