<svg xmlns="http://www.w3.org/2000/svg" fill="none" viewBox="0 0 242 240"><g clip-path="url(#a)"><path fill="#F2F2F2" d="M220.4 126.89 75.25 83.37l-24.82 82.85 145.16 43.52 24.83-82.85Z"/><path fill="#3F3D56" d="M195.68 210.78 0 150.55 46.32 0 242 60.22l-46.32 150.56ZM1.08 150l194.02 59.71 45.82-148.93L46.9 1.07 1.08 150Z"/><path fill="#2F2E41" d="M124.57 50.37H70.54v61.34h54.03V50.36ZM154.8 232.39H76.1v-29.2a58.43 58.43 0 0 1 3.96-21.06c3.49-9.06 8.02-14.39 8.02-14.39 31.8 17.73 51.08 1.57 51.08 1.57l3.46 13.92.25 1 9.17 37.03.25 1.02 2.51 10.1Z"/><path fill="#3F3D56" d="M142.87 184.24a131.72 131.72 0 0 1-31.19 3.87c-5.5.01-11-.4-16.44-1.22a88.68 88.68 0 0 1-15.54-3.79l.36-.97a87.2 87.2 0 0 0 15.4 3.74c10.75 1.65 26.97 2.26 47.16-2.65l.25 1.02ZM152.3 222.28c-15.75 4.93-29.5 6.5-40.62 6.5-5.5 0-11-.4-16.44-1.22a84.48 84.48 0 0 1-19.14-5.15v-1.13a82.3 82.3 0 0 0 19.35 5.26c12.38 1.9 32.01 2.42 56.6-5.28l.24 1.02Z"/><path fill="#FFD5D8" d="m154.54 100.75-11.1 19.17-.37.64-25.54 22.94-31.27-21.37-13.55-17.2s2.08-6.79 9.38-7.83c1.92-.27 3.55-.55 5.04-.86 1.01-.21 1.95-.44 2.88-.7 2.86-.81 5.5-1.91 9.28-3.65 6.78-3.13-2.09-13.03-2.09-13.03l18.25-11.47s8.1 26.32 22.3 26.09l.63-.03c.78-.05 1.53-.08 2.24-.09 12.52-.08 13.92 7.4 13.92 7.4Z"/><path fill="#3F3D56" d="m90.95 115.35-3.82-19.1a43.9 43.9 0 0 0 2.88-.71l.94 19.8ZM140.62 93.36l-3.54 19.12.67-19 .63-.03c.78-.06 1.53-.08 2.24-.09Z"/><path fill="#FFD5D8" d="M98.25 80.94a19.8 19.8 0 1 0 0-39.62 19.8 19.8 0 0 0 0 39.62ZM75.84 101.8l-3.13 3.12s-4.7 42.23 0 62.56l21.89 56.3s5.73 19.81 18.24 15.64c12.51-4.17-10.42-27.1-10.42-27.1L86.26 168v-55.26L75.84 101.8ZM146.72 96.06l7.82 4.7s6.78 23.45 1.04 55.77l-8.86 61.52s-5.21 23.46-16.16 17.72c-10.94-5.73 7.3-25.02 7.3-25.02l4.7-47.96 1.03-50.05 3.13-16.68Z"/><path fill="#3F3D56" d="m114.93 132.03-24.5-20.33-5.21 12.51S80 176.34 84.18 175.3c4.17-1.04 4.69-5.74 8.34-2.09 3.64 3.65 26.58 8.87 29.7 5.74 3.13-3.13 18.25-7.82 18.25-7.82s6.25-4.7 4.17-10.95c-2.09-6.25 0-7.3.52-9.9.52-2.61 0-30.24 0-30.24l-7.3-12.51-22.93 24.5Z"/><path fill="#A77D57" d="M115.58 97.38c4.63-.58 8.64-3.52 11.93-8.75l-.89-.55c-3.1 4.94-6.86 7.72-11.16 8.26-7.64.95-14.53-5.52-14.6-5.59l-.72.75c.27.27 6.35 5.98 13.73 5.98h.01v8.25a2.6 2.6 0 1 0 1.05.1v-8.4l.65-.05Z"/><path fill="#2F2E41" d="M97.47 26.98s-20.05 2.51-24.53 14.6C68.45 53.68 60.6 60.03 60.6 60.03s-12.37 8.6-6.19 23.95c0 0-19.24 12.93-6.53 24.42 0 0-.74 11.49 6.74 19.35 0 0 5.98 3.02 3.73 4.84-2.24 1.81 14.96.6 13.47-15.73-1.5-16.32 8.6-27.82 8.6-27.82s-9.73-21.17-5.24-28.42c2.73-4.41 3.9-7.7 6.16-9.6a28.38 28.38 0 0 0 3.49-3.4 8.05 8.05 0 0 1 8.67-2.71c1.9.49 3.67 1.42 5.15 2.7a94.2 94.2 0 0 0 14.45 10.56 90.3 90.3 0 0 1 7.3 4.79c4.35 3.2.76 9.97-3.6 15.65-6.43 8.4-6.56 20.2.17 28.36l.61.7c6.59 7.38-1.9 13.81-2.39 14.64-1.12 1.88-5.6 13.8 12.9 13.85 0 0 4.3-9.02 10.28-14.46 5.99-5.44 1.5-21.16 1.5-21.16s8.97-5.44-.75-18.75c0 0 5.14-16.19-3.08-24.05 0 0-13.15-34.99-38.57-30.76Z"/><path fill="#FFD5D8" d="M119.88 65.56c1.44 0 2.6-1.75 2.6-3.9 0-2.17-1.16-3.92-2.6-3.92-1.44 0-2.6 1.75-2.6 3.91s1.16 3.91 2.6 3.91Z"/><path fill="#A77D57" d="M120.14 78.09c-3.03 0-5.49-3.17-5.49-7.06 0-3.88 2.46-7.05 5.49-7.05a.27.27 0 0 1 0 .55c-2.72 0-4.94 2.92-4.94 6.5 0 3.6 2.22 6.5 4.94 6.5s4.94-2.9 4.94-6.5c0-3.2-1.15-5.53-3.07-6.25a.27.27 0 0 1-.15-.14.27.27 0 0 1 0-.21.27.27 0 0 1 .34-.16c2.15.8 3.43 3.33 3.43 6.77 0 3.88-2.46 7.05-5.49 7.05Z"/><path fill="#FFD5D8" d="M122.35 62.92c-.17.86-.61 1.63-1.27 2.2l1.27-2.2Z"/><path fill="#A77D57" d="m102.9 212.12-10.8 5.31.26.53 10.8-5.31-.27-.53Z"/><path fill="#A77D57" d="M97.67 217.14a2.38 2.38 0 1 0 0-4.76 2.38 2.38 0 0 0 0 4.76Z"/><path fill="#2F2E41" d="M195.46 210.7c-10.36-5.79-16.81-13.68-19.17-23.46-1.76-7.26-1.25-15.43 1.5-24.29a65.05 65.05 0 0 1 9.04-18.27c20.99-29.72 22.88-49.08 20.78-60.1-2.31-12.07-9.82-17.08-9.9-17.13l.33-.5c.08.05 7.78 5.18 10.15 17.5 1.36 7.1.72 15.2-1.91 24.07-3.27 11.04-9.66 23.32-18.97 36.5a64.5 64.5 0 0 0-8.96 18.1c-4.5 14.53-5.14 34.48 17.4 47.05l-.29.52ZM176.53 155.67c-8.17-4.56-7.94-11.78-6.31-17.03.72-2.32 1.8-4.51 3.2-6.5 7.36-10.4 8.03-17.16 7.29-21-.8-4.17-3.37-5.89-3.4-5.9l.33-.5c.11.07 2.8 1.87 3.65 6.28 1.1 5.75-1.37 12.98-7.38 21.47a22.5 22.5 0 0 0-3.12 6.32c-1.57 5.05-1.8 11.97 6.03 16.34l-.29.52ZM213.3 89.69l-.3-.52c7.83-4.36 7.6-11.29 6.04-16.33-.7-2.26-1.76-4.4-3.13-6.32-6-8.5-8.48-15.72-7.37-21.47.84-4.42 3.54-6.21 3.65-6.29l.33.5c-.03.02-2.61 1.75-3.4 5.92-.73 3.84-.06 10.6 7.28 21a23.09 23.09 0 0 1 3.21 6.48c1.63 5.25 1.86 12.47-6.31 17.03Z"/><path fill="#A77D57" d="M230.74 60.11a8.92 8.92 0 0 1-14.93-9.74c2.69-4.12 16.23-8.57 16.23-8.57s1.4 14.19-1.3 18.31ZM227.47 32.47a8.91 8.91 0 0 1-14.93-9.74c2.7-4.12 16.24-8.57 16.24-8.57s1.38 14.19-1.3 18.31Z"/><path fill="#2F2E41" d="M213.1 133.74a9.21 9.21 0 0 1-3.97-17.53c4.49-2.14 17.94.99 18.52 1.12l.36.09-.16.33c-.26.53-6.31 12.95-10.8 15.1-1.23.58-2.58.89-3.95.89Zm.75-17.68c-1.82 0-3.42.19-4.47.68a8.62 8.62 0 0 0 7.42 15.57c3.9-1.87 9.33-12.45 10.34-14.48-1.62-.36-8.3-1.77-13.28-1.77Z"/><path fill="#A77D57" d="M194.94 51.94a8.91 8.91 0 0 1-12.01 13.17c-3.64-3.31-5.85-17.4-5.85-17.4s14.22.9 17.86 4.23ZM174.14 89.38a8.92 8.92 0 0 1-12.01 13.18c-3.64-3.32-5.85-17.4-5.85-17.4s14.22.9 17.86 4.22Z"/><path fill="#2F2E41" d="M197.45 94.64c-2.97 0-8.66-2.82-8.92-2.95l-.34-.17.24-.29c.2-.24 4.92-6.03 7.58-6.6a5.08 5.08 0 0 1 2.15 9.94c-.23.05-.47.07-.7.07Zm-8.32-3.32c1.4.67 6.77 3.13 8.9 2.67a4.5 4.5 0 0 0-1.9-8.78c-2.13.46-6 4.92-7 6.11Z"/></g><defs><clipPath id="a"><path fill="#fff" d="M0 0h242v240H0z"/></clipPath></defs></svg>