<svg xmlns="http://www.w3.org/2000/svg" fill="none" viewBox="0 0 37 25"><rect width="34.61" height="23.59" x="1.2" y=".86" fill="#fff" stroke="#F3F3F3" rx="3.5"/><path fill="#5F6368" fill-rule="evenodd" d="M17.84 15.18v-2.77h1.5c.61 0 1.13-.2 1.55-.59.43-.37.66-.9.65-1.45.01-.55-.23-1.08-.65-1.44-.41-.4-.98-.6-1.56-.6h-2.4v6.85h.9Zm0-3.61v-2.4h1.52c.34 0 .66.13.9.37a1.15 1.15 0 0 1 0 1.67c-.24.24-.57.37-.9.36h-1.52ZM25.22 10.87a2.3 2.3 0 0 0-1.59-.53c-.86 0-1.5.31-1.95.92l.8.49c.3-.41.7-.62 1.2-.62.33 0 .64.1.88.32.24.19.38.48.37.78v.2c-.34-.2-.79-.29-1.33-.29-.63 0-1.13.15-1.51.43-.38.29-.57.67-.57 1.16 0 .44.2.86.54 1.15.36.3.8.45 1.34.45.62 0 1.12-.26 1.5-.8h.03v.65h.87V12.3c0-.6-.2-1.08-.58-1.42Zm-2.46 3.45a.7.7 0 0 1-.3-.57c0-.26.12-.47.37-.64.25-.18.55-.26.92-.26.5 0 .9.1 1.19.32 0 .37-.15.7-.45.97-.28.26-.64.41-1.02.41-.26 0-.5-.08-.7-.23ZM30.78 10.5l-3.03 6.75h-.93l1.12-2.37-2-4.38h1l1.43 3.36h.02l1.4-3.36h1Z" clip-rule="evenodd"/><path fill="#4285F4" fill-rule="evenodd" d="M14.17 11.8c0-.26-.02-.53-.07-.8h-3.82v1.52h2.19c-.1.5-.39.92-.81 1.2v.98h1.3c.77-.68 1.21-1.7 1.21-2.9Z" clip-rule="evenodd"/><path fill="#34A853" fill-rule="evenodd" d="M10.28 15.65c1.1 0 2.01-.34 2.69-.95l-1.31-.98c-.37.24-.83.38-1.38.38-1.06 0-1.96-.7-2.28-1.63H6.65v1.02a4.07 4.07 0 0 0 3.63 2.16Z" clip-rule="evenodd"/><path fill="#FBBC04" fill-rule="evenodd" d="M8 12.47a2.29 2.29 0 0 1 0-1.5V9.95H6.65a3.83 3.83 0 0 0 0 3.54L8 12.47Z" clip-rule="evenodd"/><path fill="#EA4335" fill-rule="evenodd" d="M10.28 9.34c.58 0 1.13.2 1.55.6L13 8.8a3.96 3.96 0 0 0-2.71-1.02c-1.54 0-2.94.83-3.63 2.16L8 10.97a2.42 2.42 0 0 1 2.28-1.63Z" clip-rule="evenodd"/></svg>