<svg xmlns="http://www.w3.org/2000/svg" fill="none" viewBox="0 0 36 25"><rect width="34.61" height="23.59" x=".89" y=".5" fill="#fff" stroke="#F3F3F3" rx="3.5"/><path fill="#40A548" fill-rule="evenodd" d="M6.15 8.6h.04c.3 0 1-.01 1.32 1.04l1.05 3.66h.2l1.07-3.66c.3-1.05 1.05-1.04 1.42-1.03h2.61v7.94h-2.6v-4.68h-.17l-1.45 4.68H7.68l-1.45-4.68h-.17v4.68h-2.6V8.61h2.7Zm11.45 0v4.7h.2l1.77-3.86c.34-.77 1.07-.83 1.07-.83h2.51v7.94H20.5v-4.68h-.2l-1.74 3.85c-.34.76-1.1.83-1.1.83h-2.52V8.61h2.66Zm11.9 5.58c1.3 0 2.46-.75 2.83-1.8H24.2v4.17h2.53v-2.37h2.78Z" clip-rule="evenodd"/><path fill="#1291D0" d="M29.63 8.6h-5.56c.13 1.77 1.65 3.29 3.22 3.29h5.21a2.78 2.78 0 0 0-2.87-3.28Z"/></svg>