<svg fill="none" viewBox="0 0 50 32"><g clip-path="url(#a)"><rect width="50" height="32" fill="#F9F9F9" rx="3"/><path fill="#FF5F00" d="M29.36 23.86h-8.75V8.14h8.75v15.72Z"/><path fill="#EB001B" d="M21.17 16c0-3.19 1.5-6.03 3.82-7.86a10 10 0 1 0 0 15.72A9.98 9.98 0 0 1 21.17 16Z"/><path fill="#F79E1B" d="M41.16 16a10 10 0 0 1-16.18 7.86 9.98 9.98 0 0 0 0-15.72A10 10 0 0 1 41.16 16Z"/><path fill="#fff" d="M16.34 16.06c0-.43.29-.8.75-.8.45 0 .75.35.75.8 0 .45-.3.8-.75.8-.46 0-.75-.36-.75-.8Zm2.01 0v-1.24h-.54v.3a.94.94 0 0 0-.78-.36c-.7 0-1.25.54-1.25 1.3s.55 1.3 1.25 1.3c.35 0 .6-.13.78-.36v.3h.54v-1.24Zm18.26 0c0-.43.29-.8.75-.8.45 0 .75.35.75.8 0 .45-.3.8-.75.8-.46 0-.75-.36-.75-.8Zm2.01 0v-2.24h-.54v1.3a.94.94 0 0 0-.78-.36c-.7 0-1.25.54-1.25 1.3s.55 1.3 1.25 1.3c.35 0 .61-.13.78-.36v.3h.54v-1.24Zm-13.56-.82c.35 0 .57.22.63.6h-1.3c.07-.36.28-.6.67-.6Zm0-.48c-.72 0-1.23.53-1.23 1.3 0 .8.53 1.3 1.28 1.3.37 0 .71-.09 1.01-.34l-.26-.4c-.2.16-.47.26-.72.26-.35 0-.67-.16-.75-.61h1.85v-.2c0-.78-.47-1.31-1.17-1.31Zm6.53 1.3c0-.43.29-.8.76-.8.44 0 .75.35.75.8 0 .45-.3.8-.75.8-.47 0-.76-.36-.76-.8Zm2.02 0v-1.24h-.54v.3a.94.94 0 0 0-.79-.36c-.7 0-1.24.54-1.24 1.3s.54 1.3 1.24 1.3c.35 0 .61-.13.79-.36v.3h.54v-1.24Zm-5.07 0c0 .76.53 1.3 1.33 1.3.37 0 .62-.08.9-.29l-.27-.44c-.2.15-.41.23-.65.23-.43 0-.75-.32-.75-.8 0-.48.32-.79.75-.8.24 0 .45.08.65.23l.26-.44a1.3 1.3 0 0 0-.9-.3c-.8 0-1.32.56-1.32 1.31Zm6.97-1.3a.73.73 0 0 0-.66.36v-.3h-.53v2.48h.54v-1.39c0-.41.18-.64.53-.64.1 0 .22.02.34.06l.16-.5a1.15 1.15 0 0 0-.38-.07Zm-14.49.26a1.86 1.86 0 0 0-1.01-.26c-.63 0-1.03.3-1.03.8 0 .4.3.65.85.73l.26.03c.3.04.43.12.43.26 0 .2-.2.3-.56.3-.38 0-.65-.12-.83-.26l-.25.42c.3.22.67.33 1.07.33.72 0 1.14-.34 1.14-.81 0-.44-.33-.67-.87-.75l-.26-.03c-.23-.04-.42-.08-.42-.25 0-.18.18-.29.47-.29.32 0 .63.12.78.21l.23-.43Zm6.98-.26a.73.73 0 0 0-.66.36v-.3h-.53v2.48h.54v-1.39c0-.41.17-.64.53-.64.1 0 .22.02.33.06l.17-.5a1.15 1.15 0 0 0-.38-.07Zm-4.62.06h-.88v-.75h-.55v.75h-.5v.5h.5v1.13c0 .57.23.92.87.92.23 0 .5-.08.67-.2l-.15-.46a1 1 0 0 1-.48.14c-.27 0-.36-.16-.36-.41V15.3h.88v-.49ZM15.3 17.3v-1.56c0-.58-.37-.98-.97-.98-.32 0-.65.1-.88.44a.91.91 0 0 0-.82-.44.82.82 0 0 0-.73.37v-.31h-.54v2.48h.55v-1.37c0-.43.24-.66.6-.66.37 0 .55.23.55.65v1.38h.54v-1.37c0-.43.25-.66.61-.66.37 0 .55.23.55.65v1.38h.54Z"/></g><defs><clipPath id="a"><path fill="#fff" d="M0 0h50v32H0z"/></clipPath></defs></svg>