<svg xmlns="http://www.w3.org/2000/svg" fill="none" viewBox="0 0 230 192"><path fill="#D9A95E" d="M57.395 147.763H222.47a7.196 7.196 0 0 0 6.651-4.456 7.235 7.235 0 0 0 .548-2.763V44.82a7.22 7.22 0 0 0-2.827-5.736 7.182 7.182 0 0 0-4.372-1.482h-64.476a20.14 20.14 0 0 0-2.715 8.323c-.8 8.55 4.089 16.455 8.463 23.84 4.374 7.385 8.546 15.972 6.23 24.242-1.567 5.578-5.812 9.615-11.079 12.034a30.998 30.998 0 0 1-16.126 2.463 50.353 50.353 0 0 1-9.711-2.223c-4.139-1.348-8.182-3.095-12.217-4.862-.004 0-.004 0-.007-.004l-.212-.093c-3.123-1.368-6.243-2.739-9.409-3.947a57.345 57.345 0 0 0-11.49-3.175c-5.971-.939-11.992-.6-17.319 2.117-8.682 4.423-13.335 13.981-16.976 23.04-3.677 9.159-6.973 18.625-8.032 28.406ZM.332 111.141v29.4a7.239 7.239 0 0 0 2.108 5.105 7.177 7.177 0 0 0 5.09 2.114h27.441c.475-4.436.077-8.856-1.666-12.98-3.796-8.992-12.983-14.311-21.742-18.581-3.68-1.793-7.424-3.524-11.231-5.058Z"/><path fill="#D9A95E" d="M29.09 140.97a7.23 7.23 0 0 0 2.108 5.104 7.188 7.188 0 0 0 5.09 2.115H63.73c.475-4.437.077-8.857-1.666-12.98-.893-2.114-2.978-4.456-5.695-6.822-10.66-9.282-27.278-1.574-27.278 12.583Z"/><path fill="#595D72" d="M0 140.541V44.817a7.57 7.57 0 0 1 2.208-5.337 7.529 7.529 0 0 1 5.323-2.214h214.938a7.53 7.53 0 0 1 5.323 2.214A7.569 7.569 0 0 1 230 44.817v95.724a7.567 7.567 0 0 1-2.208 5.337 7.532 7.532 0 0 1-5.323 2.215H7.531a7.531 7.531 0 0 1-5.323-2.215A7.569 7.569 0 0 1 0 140.541Zm7.53-102.61a6.865 6.865 0 0 0-4.853 2.02 6.904 6.904 0 0 0-2.013 4.866v95.724a6.903 6.903 0 0 0 2.013 4.867 6.864 6.864 0 0 0 4.854 2.019h214.938a6.866 6.866 0 0 0 4.854-2.019 6.904 6.904 0 0 0 2.013-4.867V44.817a6.904 6.904 0 0 0-2.013-4.867 6.867 6.867 0 0 0-4.854-2.019H7.531Z"/><path fill="#595D72" d="M71.127 147.523h9.76c1.67-5.637 4.08-11.611 6.28-17.056 4.222-10.44 9.615-21.455 19.681-26.553 4.298-2.176 8.985-3.027 13.77-2.98 6.612.063 13.409 1.842 19.632 4.201 2.545.962 5.068 2.021 7.58 3.103 9.466 4.078 18.828 8.521 29.007 9.722 12.881 1.518 28.025-4.261 31.543-16.709 2.685-9.53-2.15-19.424-7.222-27.935-5.071-8.511-10.74-17.618-9.814-27.472.004-.033.007-.07.014-.103.348-3.54 2.456-6.083 5.399-7.714H183.94c-.169 9.193 5.134 17.307 9.907 25.319 5.071 8.508 9.907 18.405 7.222 27.935-3.518 12.445-32.649-2.143-45.53-3.664-3.638-.427 2.141 1.091-1.328 0-5.439-1.71-6.042 13.975-11.336 11.673-3.296-1.436-6.595-2.862-9.937-4.129a82.862 82.862 0 0 0-4.228-1.475c-.003 0-.003 0-.007-.003-9.605-3.05-20.109-4.238-28.984.172l-.182.09c-10.067 5.093-15.46 16.109-19.681 26.548-3.488 8.631-7.01 17.927-8.729 27.03ZM71.234 78.914H7.747c-.52 0-1.02.207-1.387.576a1.97 1.97 0 0 0 1.387 3.358h63.487c.52 0 1.02-.207 1.387-.576a1.97 1.97 0 0 0-1.386-3.358ZM27.474 67.883H7.79c-.52 0-1.02.207-1.387.576a1.97 1.97 0 0 0 1.387 3.358h19.684c.52 0 1.02-.207 1.387-.576a1.97 1.97 0 0 0-1.387-3.358Z"/><path fill="#FFB6B6" d="m103.383 183.022-4.024-.034-1.78-15.926 5.937.051-.133 15.909Z"/><path fill="#2F2E41" d="M90.496 189.438a1.8 1.8 0 0 0 1.784 1.82l7.999.067 1.401-2.847.514 2.861 3.019.028-.763-10.205-1.05-.07-4.283-.296-1.382-.093-.024 2.887-6.427 4.371a1.805 1.805 0 0 0-.788 1.477Z"/><path fill="#FFB6B6" d="m144.205 183.022-4.024-.034-1.781-15.926 5.939.051-.134 15.909Z"/><path fill="#2F2E41" d="M131.316 189.438c-.003.478.183.939.517 1.28a1.8 1.8 0 0 0 1.267.54l8 .067 1.4-2.847.515 2.861 3.018.028-.762-10.205-1.05-.07-4.284-.296-1.382-.093-.024 2.887-6.426 4.371a1.81 1.81 0 0 0-.789 1.477Z"/><path fill="#FFB6B6" d="m98.42 55.489 18.109-13.975a3.704 3.704 0 0 0-.42-6.131 3.687 3.687 0 0 0-2.894-.338c-.48.144-.925.384-1.31.706L93.538 50.846l-11.545 8.701a3.211 3.211 0 0 0-3.681.313 3.228 3.228 0 0 0-.963 3.576 3.226 3.226 0 0 0 3.023 2.129 3.214 3.214 0 0 0 3.027-2.123l15.02-7.953Z"/><path fill="#A0616A" d="m113.179 58.7-.798 17.877 27.111 3.29c-2.134-7.184-5.632-17.16-4.029-22.16l-22.284.993Z"/><path fill="#E6E6E6" d="M128.59 25.926h-8.351l-3.587 6.154-1.708-.095c-3.331 1.287-4.658 2.618-6.496 6.165l-6.46 5.439 4.979 5.99c3.438-.565 4.678-3.241 3.586-8.157 0 0-3.765 6.581 1.659 9.819 0 0-.968 6.1 0 6.034.967-.066 3.196-1.307.967-.066-2.228 1.242-1.846 1.295-1.774 1.697a749.397 749.397 0 0 0 2.199 11.64l23.565 2.33s-1.358-14.29-1.284-15.103c.074-.812-.422 1.174.074-.812.495-1.986 1.238-1.242.495-1.986-.743-.745 5.106-1.387 2.823-4.966l7.634-1.997-4.267-10.17c0-3.433-5.5-6.216-8.924-6.216h-.438l-4.692-5.7Z"/><path fill="#2F2E41" d="M137.477 70.178c-9.219 3.18-17.519 2.482-24.537-3.623 0 0-1.975 7.322-3.974 6.323-2-.998-1.011 1.796-1.561 2.82-.583 1.087.094 2.922-1.832 3.546-1.925.623-1.202 2.456-1.826 3.805-4.362 9.44-9.345 22.803-12.711 39.751-3.46 17.416 4.978 46.594 4.978 46.594l7.965-.665 1.992-37.941 9.108-16.037s4.474-2.613 1.666-3.938c-2.809-1.325-.927-2.968 1.119-2.646 2.046.322 4.369-10.328 4.369-10.328-2.917 7.353 15.267 72.221 15.267 72.221l7.634-.666-4.315-90.525-3.342-8.691ZM133.546 10.476c.905 2.261 3.459 6.707 3.805 9.133l-.156-.154c-.297.51-.634.993-1.009 1.448a7.016 7.016 0 0 0-2.382-1.643 8.437 8.437 0 0 1 .836 3.23c-1.662 1.453-5.908.577-8.03 1.35-3.414 1.242-7.039 1.685-10.617 2.052-1.271.131-2.693.21-3.583-.542-.89-.753-.36-2.147-.839-3.201-3.411-7.51-.263-10.22 2.412-13.625.588-.749.586-1.867 1.302-2.582.994-.991 2.517-1.296 3.922-1.54a2.122 2.122 0 0 1-1.87-.928 1.931 1.931 0 0 1 .026-2.01c.502-.835 1.546-1.32 2.553-1.442a9.673 9.673 0 0 1 2.955.255 5.284 5.284 0 0 1 1.789.574 1.465 1.465 0 0 1 .762 1.488 1.906 1.906 0 0 1-1.121 1.212 4.958 4.958 0 0 1-1.269.348 9.923 9.923 0 0 1 5.835 1.024c2.251 1.204 3.77 3.294 4.679 5.553Z"/><path fill="#FFB6B6" d="M121.357 23.153c4.444 0 8.046-3.612 8.046-8.069 0-4.456-3.602-8.068-8.046-8.068-4.444 0-8.046 3.612-8.046 8.068 0 4.457 3.602 8.07 8.046 8.07Z"/><path fill="#2F2E41" d="M129.1 10.754c-.467 1.414-1.8 1.87-3.032 2.154-.389.09-.78.175-1.174.25a8.177 8.177 0 0 0-.462-.53 7.02 7.02 0 0 0-2.382-1.642c.389.798.647 1.653.765 2.533a42.39 42.39 0 0 1-2.247.266 2.536 2.536 0 0 1-2.984-1.836c-.686 1.124-1.496 2.183-2.605 2.63a3.146 3.146 0 0 1-3.587-1.076c-.664-.813-1.034-1.904-1.3-2.957-.314-1.252-.489-2.694.129-3.489.495-.643 1.348-.654 2.136-.597 1.739.133 3.459.446 5.134.933l.142.32c-.288-1.734.336-3.403 1.491-3.996.779-.397 1.717-.33 2.628-.25 1.17.053 2.325.277 3.431.666a6.596 6.596 0 0 1 3.109 2.49c.809 1.231 1.21 2.91.808 4.131Z"/><path fill="#2F2E41" d="M117.63 3.218c.079-.024-.127.006-.055.008a.66.66 0 0 1-.106-.014.644.644 0 0 1-.339-.209 2.68 2.68 0 0 1-.439-.783 2.81 2.81 0 0 0-.603-1.008.693.693 0 0 0-.593-.196.688.688 0 0 0-.508.364c-.156.348-.013.776.098 1.117.116.355.287.689.509.989.371.49.876.862 1.454 1.07a3.298 3.298 0 0 0 2.079.059.505.505 0 0 0 .02-.922l-1.136-.467a.5.5 0 0 0-.657.256.503.503 0 0 0 .256.658l1.136.467.02-.923a1.96 1.96 0 0 1-.435.075 1.66 1.66 0 0 1-.471-.02 2.057 2.057 0 0 1-.436-.107 2.828 2.828 0 0 1-.359-.16c.002.001-.13-.076-.072-.04a2.805 2.805 0 0 1-.412-.322 2.592 2.592 0 0 1-.304-.388c-.112-.184-.2-.38-.264-.586a2.667 2.667 0 0 1-.073-.264 1.02 1.02 0 0 0-.026-.145c-.042-.114.008.066-.041.116l-.209.154a.276.276 0 0 1-.234-.037c-.025-.035-.02-.03.016.017.041.055.079.113.114.172.075.141.143.285.203.433.125.314.283.613.472.893a1.606 1.606 0 0 0 1.756.673.502.502 0 0 0 .283-.646.51.51 0 0 0-.644-.284Z"/><path fill="#fff" d="M105.081 90.88c13.139 0 23.791-10.682 23.791-23.858s-10.652-23.858-23.791-23.858c-13.14 0-23.792 10.682-23.792 23.858S91.941 90.88 105.081 90.88Z"/><path fill="#595D72" d="M105.079 91.213a24.075 24.075 0 0 1-13.403-4.076 24.177 24.177 0 0 1-8.885-10.857 24.253 24.253 0 0 1-1.372-13.977 24.212 24.212 0 0 1 6.602-12.386 24.102 24.102 0 0 1 12.351-6.62c4.68-.933 9.53-.454 13.938 1.376a24.133 24.133 0 0 1 10.826 8.91 24.237 24.237 0 0 1 4.066 13.44 24.253 24.253 0 0 1-7.073 17.097 24.119 24.119 0 0 1-17.05 7.093Zm0-47.715c-4.64 0-9.176 1.38-13.034 3.964a23.51 23.51 0 0 0-8.64 10.558 23.585 23.585 0 0 0-1.335 13.592 23.545 23.545 0 0 0 6.42 12.045 23.44 23.44 0 0 0 12.012 6.439c4.551.907 9.268.441 13.554-1.34a23.475 23.475 0 0 0 10.529-8.664 23.578 23.578 0 0 0 3.953-13.07 23.585 23.585 0 0 0-6.879-16.626 23.452 23.452 0 0 0-16.58-6.898Z"/><path fill="#D9A95E" d="M101.834 79.44a2.636 2.636 0 0 1-2.117-1.062l-6.49-8.679a2.658 2.658 0 0 1 1.46-4.163 2.639 2.639 0 0 1 2.774.979l4.246 5.677 10.907-16.405a2.65 2.65 0 0 1 1.683-1.13 2.638 2.638 0 0 1 2.718 1.126 2.662 2.662 0 0 1 .003 2.948l-12.982 19.527a2.637 2.637 0 0 1-2.128 1.18l-.074.002Z"/><path fill="#CCC" d="M78.873 191.603a.398.398 0 0 0 .244.366c.048.02.1.03.151.03h84.064a.397.397 0 0 0 0-.792H79.268a.393.393 0 0 0-.395.396Z"/><path fill="#FFB6B6" d="m153.305 67.839-7.777-21.546a3.694 3.694 0 0 0-1.884-2.073 3.677 3.677 0 0 0-4.069.612 3.706 3.706 0 0 0-.927 4.127l8.763 22.133 4.76 13.674a3.232 3.232 0 0 0 .416 5.106 3.213 3.213 0 0 0 4.809-1.73 3.233 3.233 0 0 0-1.098-3.537l-2.993-16.766Z"/><path fill="#E6E6E6" d="m141.599 36.695 6.306 11.316s-14.533 4.99-14.568 4.159c-.035-.83.722-12.359.722-12.359l7.54-3.116Z"/></svg>