<svg xmlns="http://www.w3.org/2000/svg" fill="none" viewBox="0 0 1366 526"><path fill="#F6F6F6" d="M901 0h465v526H901V0Z"/><g fill="#E2E1DB" fill-rule="evenodd" clip-path="url(#a)" clip-rule="evenodd" opacity=".4"><path d="m833.161 162.956-7.866-3.262a99.003 99.003 0 0 0-75.838 0l-7.867 3.262a99.001 99.001 0 0 0-53.558 53.598l-3.315 8.009a99.005 99.005 0 0 0 0 75.705l3.315 8.009a98.995 98.995 0 0 0 53.558 53.598l7.867 3.262a98.994 98.994 0 0 0 75.838 0l7.866-3.262a98.996 98.996 0 0 0 53.559-53.598l3.314-8.009a98.996 98.996 0 0 0 0-75.705l-3.314-8.009a99.003 99.003 0 0 0-53.559-53.598Zm-7.483-4.185a100 100 0 0 0-76.604 0l-7.867 3.261a100 100 0 0 0-54.099 54.14l-3.315 8.009a100.007 100.007 0 0 0 0 76.469l3.315 8.01a99.997 99.997 0 0 0 54.099 54.139l7.867 3.262a100 100 0 0 0 76.604 0l7.866-3.262a100.002 100.002 0 0 0 54.1-54.139l3.314-8.01a99.997 99.997 0 0 0 0-76.469l-3.314-8.009a100.004 100.004 0 0 0-54.1-54.14l-7.866-3.261Z"/><path d="m861.305 134.782-36.01-14.931a98.994 98.994 0 0 0-75.838 0l-36.01 14.931a99 99 0 0 0-53.559 53.598l-14.971 36.182a98.994 98.994 0 0 0 0 75.704l14.971 36.183a99.003 99.003 0 0 0 53.559 53.598l36.01 14.931a99.003 99.003 0 0 0 75.838 0l36.01-14.931a99.003 99.003 0 0 0 53.559-53.598l14.972-36.183a99.003 99.003 0 0 0 0-75.704l-14.972-36.182a99 99 0 0 0-53.559-53.598Zm-35.627-15.855a100 100 0 0 0-76.604 0l-36.01 14.931a100.002 100.002 0 0 0-54.1 54.139l-14.971 36.183a99.997 99.997 0 0 0 0 76.469l14.971 36.182a100 100 0 0 0 54.1 54.139l36.01 14.932a100 100 0 0 0 76.604 0l36.01-14.932a100 100 0 0 0 54.1-54.139l14.972-36.182a100.007 100.007 0 0 0 0-76.469l-14.972-36.183a100.002 100.002 0 0 0-54.1-54.139l-36.01-14.931Z"/><path d="m889.449 106.61-64.153-26.601a99.002 99.002 0 0 0-75.839 0l-64.153 26.601a98.998 98.998 0 0 0-53.559 53.597l-26.629 64.355a98.996 98.996 0 0 0 0 75.705l26.629 64.355a99.003 99.003 0 0 0 53.559 53.598l64.153 26.601a99.003 99.003 0 0 0 75.838 0l64.154-26.601a99.003 99.003 0 0 0 53.559-53.598l26.629-64.355a99.005 99.005 0 0 0 0-75.705l-26.629-64.355a98.998 98.998 0 0 0-53.559-53.597Zm-63.77-27.525a100.002 100.002 0 0 0-76.605 0l-64.153 26.601a100 100 0 0 0-54.1 54.139l-26.629 64.355a99.997 99.997 0 0 0 0 76.469l26.629 64.355a100 100 0 0 0 54.1 54.14l64.153 26.6a100.002 100.002 0 0 0 76.605 0l64.153-26.6a100.004 100.004 0 0 0 54.1-54.14l26.629-64.355a99.997 99.997 0 0 0 0-76.469l-26.629-64.355a100.002 100.002 0 0 0-54.1-54.139l-64.153-26.601Z"/><path d="m917.593 78.437-92.297-38.27a99 99 0 0 0-75.838 0l-92.298 38.27a99 99 0 0 0-53.558 53.598l-38.287 92.528a99.003 99.003 0 0 0 0 75.704l38.287 92.528a98.996 98.996 0 0 0 53.559 53.598l92.297 38.27a98.994 98.994 0 0 0 75.838 0l92.297-38.27a99 99 0 0 0 53.559-53.598l38.288-92.528a98.994 98.994 0 0 0 0-75.704l-38.288-92.528a99.002 99.002 0 0 0-53.559-53.598Zm-91.914-39.194a100 100 0 0 0-76.604 0l-92.298 38.27a99.996 99.996 0 0 0-54.099 54.14l-38.287 92.528a99.997 99.997 0 0 0 0 76.469l38.287 92.528a99.997 99.997 0 0 0 54.099 54.139l92.298 38.27a100 100 0 0 0 76.604 0l92.297-38.27a100 100 0 0 0 54.1-54.14l38.284-92.527a100.007 100.007 0 0 0 0-76.469l-38.284-92.528a100 100 0 0 0-54.1-54.14l-92.297-38.27Z"/><path d="M945.735 50.263 825.294.323a99 99 0 0 0-75.838 0l-120.441 49.94a99 99 0 0 0-53.559 53.598l-49.944 120.7a99.005 99.005 0 0 0 0 75.705l49.944 120.7a98.996 98.996 0 0 0 53.559 53.598l120.441 49.94a98.994 98.994 0 0 0 75.838 0l120.441-49.94a98.996 98.996 0 0 0 53.559-53.598l49.946-120.7a98.996 98.996 0 0 0 0-75.705l-49.946-120.7a99 99 0 0 0-53.559-53.598ZM825.677-.601a100 100 0 0 0-76.604 0L628.632 49.34a100.002 100.002 0 0 0-54.1 54.14l-49.944 120.7a100.007 100.007 0 0 0 0 76.469l49.944 120.701a100.002 100.002 0 0 0 54.1 54.139l120.441 49.94a100 100 0 0 0 76.604 0l120.441-49.94a100.012 100.012 0 0 0 54.102-54.139l49.94-120.701a100.007 100.007 0 0 0 0-76.469l-49.94-120.7a100.012 100.012 0 0 0-54.102-54.14L825.677-.6Z"/><path d="M973.879 22.09 825.294-39.518a99 99 0 0 0-75.838 0l-148.584 61.61a99 99 0 0 0-53.559 53.598l-61.601 148.873a98.994 98.994 0 0 0 0 75.704l61.601 148.874a99.003 99.003 0 0 0 53.559 53.598l148.584 61.609a99.003 99.003 0 0 0 75.838 0l148.585-61.609a99.01 99.01 0 0 0 53.561-53.598l61.6-148.874a98.994 98.994 0 0 0 0-75.704l-61.6-148.873a99.008 99.008 0 0 0-53.561-53.598ZM825.677-40.441a99.999 99.999 0 0 0-76.604 0L600.489 21.167a100.002 100.002 0 0 0-54.1 54.14L484.788 224.18a99.997 99.997 0 0 0 0 76.469l61.601 148.873a100.002 100.002 0 0 0 54.1 54.139l148.584 61.61a100 100 0 0 0 76.604 0l148.585-61.61a99.996 99.996 0 0 0 54.098-54.139l61.6-148.873a100.007 100.007 0 0 0 0-76.469l-61.6-148.874a99.996 99.996 0 0 0-54.098-54.139l-148.585-61.61Z"/><path d="M1002.02-6.082 825.295-79.36a99 99 0 0 0-75.838 0L572.729-6.082a99 99 0 0 0-53.559 53.598l-73.259 177.046a98.996 98.996 0 0 0 0 75.705l73.259 177.046a99.003 99.003 0 0 0 53.559 53.598l176.728 73.279a99.003 99.003 0 0 0 75.838 0l176.725-73.279a98.988 98.988 0 0 0 53.56-53.598l73.26-177.046a98.996 98.996 0 0 0 0-75.705l-73.26-177.046a98.986 98.986 0 0 0-53.56-53.598ZM825.678-80.284a99.999 99.999 0 0 0-76.604 0L572.346-7.005a100 100 0 0 0-54.1 54.14L444.987 224.18a99.997 99.997 0 0 0 0 76.469l73.259 177.046a100 100 0 0 0 54.1 54.14l176.728 73.278a100 100 0 0 0 76.604 0l176.732-73.278a100.03 100.03 0 0 0 54.1-54.14l73.25-177.046a99.915 99.915 0 0 0 0-76.469l-73.25-177.046a100.028 100.028 0 0 0-54.1-54.14L825.678-80.283Z"/><path d="m1030.16-34.254-204.867-84.948a98.994 98.994 0 0 0-75.838 0L544.583-34.254a98.999 98.999 0 0 0-53.558 53.598l-84.917 205.219a99.003 99.003 0 0 0 0 75.704l84.917 205.219a99.001 99.001 0 0 0 53.558 53.598l204.872 84.948a98.994 98.994 0 0 0 75.838 0l204.867-84.948a98.985 98.985 0 0 0 53.56-53.598l84.92-205.219a98.994 98.994 0 0 0 0-75.704l-84.92-205.219a98.986 98.986 0 0 0-53.56-53.598Zm-204.484-85.872a100 100 0 0 0-76.604 0L544.2-35.178a99.997 99.997 0 0 0-54.099 54.14L405.184 224.18a99.997 99.997 0 0 0 0 76.469l84.917 205.218a100 100 0 0 0 54.099 54.14l204.872 84.948a100 100 0 0 0 76.604 0l204.874-84.948a99.998 99.998 0 0 0 54.1-54.14l84.91-205.218a100.007 100.007 0 0 0 0-76.469l-84.91-205.22a99.996 99.996 0 0 0-54.1-54.139l-204.874-84.948Z"/><path d="m1058.31-62.426-233.017-96.618a99.003 99.003 0 0 0-75.838 0L516.44-62.426a99 99 0 0 0-53.559 53.598l-96.574 233.391a99.005 99.005 0 0 0 0 75.705l96.574 233.391a99 99 0 0 0 53.559 53.598l233.015 96.618a99.003 99.003 0 0 0 75.838 0l233.017-96.618a99.017 99.017 0 0 0 53.56-53.598l96.57-233.391a98.996 98.996 0 0 0 0-75.705L1111.87-8.828a99.019 99.019 0 0 0-53.56-53.598Zm-232.634-97.542a100 100 0 0 0-76.604 0L516.057-63.35a100.002 100.002 0 0 0-54.1 54.14L365.383 224.18a99.997 99.997 0 0 0 0 76.469l96.574 233.392a100.002 100.002 0 0 0 54.1 54.139l233.015 96.618a100 100 0 0 0 76.604 0l233.014-96.618a99.996 99.996 0 0 0 54.1-54.139l96.58-233.392a100.007 100.007 0 0 0 0-76.469L1112.79-9.21a99.996 99.996 0 0 0-54.1-54.14l-233.014-96.618Z"/><path d="M1086.45-90.6 825.294-198.888a99.003 99.003 0 0 0-75.838 0L488.297-90.6a99 99 0 0 0-53.559 53.598L326.506 224.562a99.003 99.003 0 0 0 0 75.704l108.232 261.565a99.003 99.003 0 0 0 53.559 53.598l261.159 108.287a99.003 99.003 0 0 0 75.838 0l261.156-108.287a98.988 98.988 0 0 0 53.56-53.598l108.23-261.565a98.994 98.994 0 0 0 0-75.704L1140.01-37.002a98.987 98.987 0 0 0-53.56-53.598ZM825.677-199.811a99.99 99.99 0 0 0-76.604 0L487.914-91.524a99.999 99.999 0 0 0-54.1 54.14L325.582 224.18a100.007 100.007 0 0 0 0 76.469l108.232 261.564a100 100 0 0 0 54.1 54.139L749.073 724.64a100 100 0 0 0 76.604 0l261.163-108.288a100.028 100.028 0 0 0 54.1-54.139l108.23-261.564a100.007 100.007 0 0 0 0-76.469L1140.94-37.385a100.028 100.028 0 0 0-54.1-54.139L825.677-199.811Z"/><path d="M1114.6-118.772 825.294-238.729a98.998 98.998 0 0 0-75.838-.001L460.153-118.773a99 99 0 0 0-53.558 53.599L286.706 224.561a98.996 98.996 0 0 0 0 75.705l119.889 289.737a99.001 99.001 0 0 0 53.558 53.598l289.303 119.957a99.003 99.003 0 0 0 75.838 0L1114.6 643.602a99.02 99.02 0 0 0 53.56-53.598l119.88-289.737a98.996 98.996 0 0 0 0-75.705L1168.16-65.174a99.015 99.015 0 0 0-53.56-53.598ZM825.677-239.653a100 100 0 0 0-76.604 0L459.77-119.696a99.996 99.996 0 0 0-54.099 54.14L285.782 224.18a99.997 99.997 0 0 0 0 76.469l119.889 289.737a99.994 99.994 0 0 0 54.099 54.139l289.303 119.957a99.99 99.99 0 0 0 76.604 0l289.303-119.957a99.993 99.993 0 0 0 54.1-54.139l119.89-289.737a100.007 100.007 0 0 0 0-76.469L1169.08-65.557a99.994 99.994 0 0 0-54.1-54.139L825.677-239.653Z"/><path d="M1142.74-146.945 825.294-278.571a98.994 98.994 0 0 0-75.838 0L432.01-146.945a99.002 99.002 0 0 0-53.559 53.598l-131.546 317.91a98.994 98.994 0 0 0 0 75.704l131.546 317.91a99.003 99.003 0 0 0 53.559 53.598l317.446 131.626a98.994 98.994 0 0 0 75.838 0l317.446-131.626a99.02 99.02 0 0 0 53.56-53.598l131.55-317.91a98.994 98.994 0 0 0 0-75.704L1196.3-93.347a99.02 99.02 0 0 0-53.56-53.598Zm-317.063-132.55a100 100 0 0 0-76.604 0L431.627-147.869a100.004 100.004 0 0 0-54.1 54.14L245.981 224.18a99.997 99.997 0 0 0 0 76.469l131.546 317.909a100.004 100.004 0 0 0 54.1 54.14l317.446 131.626a100 100 0 0 0 76.604 0l317.443-131.626a99.998 99.998 0 0 0 54.1-54.14l131.55-317.909a100.007 100.007 0 0 0 0-76.469l-131.55-317.91a99.993 99.993 0 0 0-54.1-54.139L825.677-279.495Z"/><path d="M1170.88-175.119 825.295-318.415a99.003 99.003 0 0 0-75.838 0l-345.59 143.296a99.003 99.003 0 0 0-53.559 53.598L207.104 224.561a99.005 99.005 0 0 0 0 75.705l143.204 346.082a99 99 0 0 0 53.559 53.598l345.59 143.296a98.994 98.994 0 0 0 75.838 0l345.585-143.296a98.985 98.985 0 0 0 53.56-53.598l143.21-346.082a98.996 98.996 0 0 0 0-75.705l-143.21-346.082a98.988 98.988 0 0 0-53.56-53.598Zm-345.202-144.22a100 100 0 0 0-76.604 0l-345.59 143.296a100 100 0 0 0-54.1 54.14L206.18 224.179a99.997 99.997 0 0 0 0 76.469l143.204 346.083a100 100 0 0 0 54.1 54.139l345.59 143.296a100 100 0 0 0 76.604 0L1171.27 700.87a99.996 99.996 0 0 0 54.1-54.139l143.2-346.083a100.007 100.007 0 0 0 0-76.469l-143.2-346.082a99.998 99.998 0 0 0-54.1-54.14L825.678-319.339Z"/><path d="M1199.03-203.291 825.295-358.257a99.003 99.003 0 0 0-75.838 0L375.723-203.291a98.995 98.995 0 0 0-53.558 53.598L167.303 224.562a99.003 99.003 0 0 0 0 75.704l154.862 374.255a98.998 98.998 0 0 0 53.558 53.598l373.734 154.966a99.003 99.003 0 0 0 75.838 0l373.735-154.966a99.017 99.017 0 0 0 53.56-53.598l154.86-374.255a98.994 98.994 0 0 0 0-75.704l-154.86-374.255a99.014 99.014 0 0 0-53.56-53.598Zm-373.352-155.89a100 100 0 0 0-76.604 0L375.34-204.215a99.997 99.997 0 0 0-54.099 54.139L166.379 224.179a100.009 100.009 0 0 0 0 76.47l154.862 374.255a99.997 99.997 0 0 0 54.099 54.139l373.734 154.966a100 100 0 0 0 76.604 0l373.732-154.966a99.996 99.996 0 0 0 54.1-54.139l154.86-374.255a100.009 100.009 0 0 0 0-76.47l-154.86-374.255a99.996 99.996 0 0 0-54.1-54.139L825.678-359.181Z"/><path d="M1227.17-231.464 825.295-398.099a99.003 99.003 0 0 0-75.838 0L347.58-231.464a99.003 99.003 0 0 0-53.559 53.598L127.503 224.562a98.996 98.996 0 0 0 0 75.705l166.518 402.427a98.996 98.996 0 0 0 53.559 53.598l401.877 166.635a98.994 98.994 0 0 0 75.838 0l401.875-166.635a98.982 98.982 0 0 0 53.56-53.598l166.52-402.427a98.996 98.996 0 0 0 0-75.705l-166.52-402.428a98.988 98.988 0 0 0-53.56-53.598ZM825.678-399.022a100 100 0 0 0-76.604 0L347.197-232.387a100.002 100.002 0 0 0-54.1 54.139L126.579 224.18a99.997 99.997 0 0 0 0 76.469l166.518 402.428a100.002 100.002 0 0 0 54.1 54.139l401.877 166.635a100 100 0 0 0 76.604 0l401.882-166.635a100.01 100.01 0 0 0 54.09-54.139l166.52-402.428a100.007 100.007 0 0 0 0-76.469l-166.52-402.428a100.01 100.01 0 0 0-54.09-54.139L825.678-399.022Z"/><path d="M1255.32-259.636 825.296-437.94a98.996 98.996 0 0 0-75.839 0l-430.02 178.304a99.003 99.003 0 0 0-53.559 53.598L87.702 224.563a98.998 98.998 0 0 0 0 75.704l178.176 430.601a99.003 99.003 0 0 0 53.559 53.598l430.02 178.305a99.005 99.005 0 0 0 75.839 0l430.024-178.305a99.02 99.02 0 0 0 53.56-53.598l178.17-430.601a98.994 98.994 0 0 0 0-75.704l-178.17-430.601a99.02 99.02 0 0 0-53.56-53.598ZM825.679-438.864a100.002 100.002 0 0 0-76.605 0L319.054-260.56a100 100 0 0 0-54.1 54.14L86.778 224.18a100.002 100.002 0 0 0 0 76.47l178.176 430.6a100 100 0 0 0 54.1 54.14l430.02 178.304a100.002 100.002 0 0 0 76.605 0L1255.7 785.39a99.998 99.998 0 0 0 54.1-54.14l178.18-430.6a100.009 100.009 0 0 0 0-76.47l-178.18-430.6a99.998 99.998 0 0 0-54.1-54.14L825.679-438.864Z"/><path d="M1283.46-287.808 825.294-477.782a98.994 98.994 0 0 0-75.838 0L291.292-287.808a99.003 99.003 0 0 0-53.559 53.598L47.899 224.563a99.002 99.002 0 0 0 0 75.705l189.834 458.773a98.996 98.996 0 0 0 53.559 53.598l458.164 189.971a98.967 98.967 0 0 0 75.838 0l458.166-189.971a99.014 99.014 0 0 0 53.56-53.598l189.83-458.773a98.996 98.996 0 0 0 0-75.705L1337.02-234.21a99.02 99.02 0 0 0-53.56-53.598ZM825.677-478.706a100 100 0 0 0-76.604 0L290.909-288.732a100 100 0 0 0-54.1 54.14L46.975 224.181a100 100 0 0 0 0 76.469l189.834 458.774a99.996 99.996 0 0 0 54.1 54.139l458.164 189.977a99.982 99.982 0 0 0 76.604 0l458.163-189.977a99.996 99.996 0 0 0 54.1-54.139l189.84-458.774a100.007 100.007 0 0 0 0-76.469l-189.84-458.773a99.998 99.998 0 0 0-54.1-54.14L825.677-478.706Z"/><path d="M1311.6-315.982 825.294-517.626a99.003 99.003 0 0 0-75.838 0L263.148-315.982a99 99 0 0 0-53.559 53.598L8.099 224.562a98.999 98.999 0 0 0 0 75.704l201.49 486.946a99 99 0 0 0 53.559 53.598l486.308 201.64a98.967 98.967 0 0 0 75.838 0L1311.6 840.81a98.982 98.982 0 0 0 53.56-53.598l201.49-486.946a98.994 98.994 0 0 0 0-75.704l-201.49-486.946a98.982 98.982 0 0 0-53.56-53.598ZM825.677-518.55a100 100 0 0 0-76.604 0L262.765-316.906a100.002 100.002 0 0 0-54.1 54.139L7.175 224.179a100.002 100.002 0 0 0 0 76.47l201.49 486.946a100.002 100.002 0 0 0 54.1 54.139l486.308 201.646a99.982 99.982 0 0 0 76.604 0l486.313-201.646a100.01 100.01 0 0 0 54.09-54.139l201.5-486.946a100.009 100.009 0 0 0 0-76.47l-201.5-486.946a100.01 100.01 0 0 0-54.09-54.139L825.677-518.55Z"/><path d="M1339.52-343.927 825.294-557.146a99.003 99.003 0 0 0-75.838 0L235.233-343.927a99 99 0 0 0-53.559 53.598L-31.38 224.561a99.001 99.001 0 0 0 0 75.705l213.054 514.89a99.003 99.003 0 0 0 53.559 53.598l514.223 213.216a98.967 98.967 0 0 0 75.838 0l514.226-213.216a99.02 99.02 0 0 0 53.56-53.598l213.05-514.89a98.996 98.996 0 0 0 0-75.705l-213.05-514.89a99.017 99.017 0 0 0-53.56-53.598ZM825.677-558.069a100 100 0 0 0-76.604 0L234.85-344.851a100 100 0 0 0-54.1 54.14l-213.054 514.89a100 100 0 0 0 0 76.469l213.054 514.89a99.996 99.996 0 0 0 54.1 54.139L749.073 1082.9a100.073 100.073 0 0 0 76.604 0L1339.9 869.677a99.993 99.993 0 0 0 54.1-54.139l213.05-514.89a100.007 100.007 0 0 0 0-76.469L1394-290.711a99.998 99.998 0 0 0-54.1-54.14L825.677-558.069Z"/><path d="M1366.93-371.361 825.295-595.944a98.996 98.996 0 0 0-75.839 0l-541.63 224.583a98.995 98.995 0 0 0-53.559 53.597L-70.14 224.563a98.998 98.998 0 0 0 0 75.704l224.407 542.326a98.993 98.993 0 0 0 53.559 53.598l541.63 224.579a98.97 98.97 0 0 0 75.839 0l541.635-224.579a98.964 98.964 0 0 0 53.55-53.598l224.41-542.326a98.994 98.994 0 0 0 0-75.704l-224.41-542.326a98.964 98.964 0 0 0-53.55-53.598ZM825.678-596.868a100.002 100.002 0 0 0-76.605 0l-541.63 224.583a99.996 99.996 0 0 0-54.1 54.139L-71.064 224.18a100.002 100.002 0 0 0 0 76.47l224.407 542.326a99.996 99.996 0 0 0 54.1 54.139l541.63 224.585a99.984 99.984 0 0 0 76.605 0l541.632-224.585a99.996 99.996 0 0 0 54.1-54.139l224.4-542.326a99.918 99.918 0 0 0 0-76.47l-224.4-542.326a99.996 99.996 0 0 0-54.1-54.139L825.678-596.868Z"/><path d="M1391.29-395.75 825.295-630.435a99.003 99.003 0 0 0-75.838 0L183.464-395.75a99.003 99.003 0 0 0-53.559 53.598l-234.498 566.714a98.994 98.994 0 0 0 0 75.704L129.905 866.98a99 99 0 0 0 53.559 53.598l565.993 234.682a98.967 98.967 0 0 0 75.838 0l565.995-234.682a99.017 99.017 0 0 0 53.56-53.598l234.49-566.714a98.994 98.994 0 0 0 0-75.704l-234.49-566.714a99.02 99.02 0 0 0-53.56-53.598ZM825.678-631.358a100 100 0 0 0-76.604 0L183.081-396.674a100 100 0 0 0-54.1 54.14L-105.517 224.18a99.997 99.997 0 0 0 0 76.469l234.498 566.713a99.998 99.998 0 0 0 54.1 54.14l565.993 234.688a100.073 100.073 0 0 0 76.604 0l565.992-234.688a99.994 99.994 0 0 0 54.1-54.14l234.5-566.713a100.007 100.007 0 0 0 0-76.469l-234.5-566.714a99.998 99.998 0 0 0-54.1-54.14L825.678-631.358Z"/></g><path fill="#A77D57" d="M0 0h901v526H0V0Z"/><g fill="#fff" fill-rule="evenodd" clip-path="url(#b)" clip-rule="evenodd" opacity=".4"><path d="M759.612 195.329a72.573 72.573 0 0 0-39.237 39.284 72.778 72.778 0 0 0 0 55.602 72.573 72.573 0 0 0 39.237 39.284 72.514 72.514 0 0 0 55.548 0 72.573 72.573 0 0 0 39.237-39.284 72.778 72.778 0 0 0 0-55.602 72.573 72.573 0 0 0-39.237-39.284 72.505 72.505 0 0 0-55.548 0Zm55.931-.924a73.511 73.511 0 0 0-56.314 0 73.576 73.576 0 0 0-39.778 39.825 73.775 73.775 0 0 0 0 56.368 73.57 73.57 0 0 0 39.778 39.824 73.502 73.502 0 0 0 56.314 0 73.57 73.57 0 0 0 39.778-39.824 73.775 73.775 0 0 0 0-56.368 73.576 73.576 0 0 0-39.778-39.825Z"/><path d="m833.166 162.954-7.859-3.259a99.004 99.004 0 0 0-75.842 0l-7.859 3.259a98.998 98.998 0 0 0-53.557 53.599l-3.315 8.012a99.002 99.002 0 0 0 0 75.7l3.315 8.011a98.995 98.995 0 0 0 53.557 53.599l7.859 3.259a98.995 98.995 0 0 0 75.842 0l7.859-3.259a98.995 98.995 0 0 0 53.557-53.599l3.315-8.011a99.002 99.002 0 0 0 0-75.7l-3.315-8.012a98.998 98.998 0 0 0-53.557-53.599Zm-7.475-4.182a99.994 99.994 0 0 0-76.609 0l-7.859 3.258a100 100 0 0 0-54.098 54.141l-3.315 8.011a100.006 100.006 0 0 0 0 76.465l3.315 8.011a100 100 0 0 0 54.098 54.141l7.859 3.259a100.003 100.003 0 0 0 76.609 0l7.858-3.259a100 100 0 0 0 54.099-54.141l3.314-8.011a99.996 99.996 0 0 0 0-76.465l-3.314-8.011a100 100 0 0 0-54.099-54.141l-7.858-3.258Z"/><path d="m861.309 134.78-36-14.929a99.006 99.006 0 0 0-75.843 0l-36 14.929a98.995 98.995 0 0 0-53.557 53.599l-14.972 36.184a99.002 99.002 0 0 0 0 75.7l14.972 36.184a99 99 0 0 0 53.557 53.6l36 14.928a99.006 99.006 0 0 0 75.843 0l36-14.928a99.005 99.005 0 0 0 53.558-53.6l14.971-36.184a99.002 99.002 0 0 0 0-75.7l-14.971-36.184a99 99 0 0 0-53.558-53.599Zm-35.617-15.852a99.994 99.994 0 0 0-76.609 0l-36 14.928a99.996 99.996 0 0 0-54.098 54.141l-14.972 36.184a100.003 100.003 0 0 0 0 76.464l14.972 36.185a99.997 99.997 0 0 0 54.098 54.14l36 14.928a99.999 99.999 0 0 0 76.609.001l36-14.929a100.002 100.002 0 0 0 54.099-54.14l14.971-36.185a99.994 99.994 0 0 0 0-76.464l-14.971-36.184a100 100 0 0 0-54.099-54.141l-36-14.928Z"/><path d="M889.45 106.607 825.308 80.01a98.998 98.998 0 0 0-75.842 0l-64.142 26.597a99.005 99.005 0 0 0-53.558 53.6l-26.628 64.357a99.002 99.002 0 0 0 0 75.7l26.628 64.356a99.005 99.005 0 0 0 53.558 53.6l64.142 26.597a98.995 98.995 0 0 0 75.842 0l64.142-26.597a99.005 99.005 0 0 0 53.558-53.6l26.628-64.356a99.002 99.002 0 0 0 0-75.7l-26.628-64.357a99.005 99.005 0 0 0-53.558-53.6Zm-63.758-27.521a100 100 0 0 0-76.609 0l-64.142 26.598a100.002 100.002 0 0 0-54.099 54.14l-26.628 64.357a100.006 100.006 0 0 0 0 76.465l26.628 64.357a100.002 100.002 0 0 0 54.099 54.14l64.142 26.598a99.999 99.999 0 0 0 76.609 0l64.141-26.598a100 100 0 0 0 54.099-54.14l26.628-64.357a100.006 100.006 0 0 0 0-76.465l-26.628-64.357a100.002 100.002 0 0 0-54.099-54.14l-64.141-26.598Z"/><path d="M917.593 78.435 825.31 40.168a99.001 99.001 0 0 0-75.843 0l-92.283 38.267a99.003 99.003 0 0 0-53.558 53.599l-38.285 92.53a99.002 99.002 0 0 0 0 75.7l38.285 92.53a99.003 99.003 0 0 0 53.558 53.599l92.283 38.267a98.997 98.997 0 0 0 75.843 0l92.283-38.267a99.003 99.003 0 0 0 53.558-53.599l38.289-92.53a99.075 99.075 0 0 0 0-75.7l-38.289-92.53a99.003 99.003 0 0 0-53.558-53.599Zm-91.9-39.19a100 100 0 0 0-76.609 0L656.801 77.51a100 100 0 0 0-54.099 54.141l-38.285 92.53a100.003 100.003 0 0 0 0 76.464l38.285 92.53a100 100 0 0 0 54.099 54.141l92.283 38.267a100.003 100.003 0 0 0 76.609 0l92.283-38.267a100 100 0 0 0 54.099-54.141l38.285-92.53a99.994 99.994 0 0 0 0-76.464l-38.285-92.53a100 100 0 0 0-54.099-54.14l-92.283-38.268Z"/><path d="M945.735 50.263 825.31.326a99 99 0 0 0-75.843 0L629.042 50.263a99.003 99.003 0 0 0-53.558 53.599l-49.941 120.703a98.993 98.993 0 0 0 0 75.7l49.941 120.702a99 99 0 0 0 53.558 53.599l120.425 49.937a98.995 98.995 0 0 0 75.842 0l120.426-49.937a98.995 98.995 0 0 0 53.557-53.599l49.938-120.702a98.984 98.984 0 0 0 0-75.7l-49.938-120.703a98.998 98.998 0 0 0-53.557-53.6ZM825.693-.597a100 100 0 0 0-76.609 0L628.659 49.338a100 100 0 0 0-54.099 54.141l-49.941 120.702a99.996 99.996 0 0 0 0 76.465l49.941 120.702a100 100 0 0 0 54.099 54.141l120.425 49.937a100.003 100.003 0 0 0 76.609 0l120.425-49.937a100.019 100.019 0 0 0 54.102-54.141l49.94-120.702a99.996 99.996 0 0 0 0-76.465l-49.94-120.702a100.019 100.019 0 0 0-54.102-54.14L825.693-.599Z"/><path d="M973.876 22.09 825.309-39.515a99.001 99.001 0 0 0-75.843 0L600.899 22.091a99 99 0 0 0-53.557 53.599l-61.598 148.875a99.002 99.002 0 0 0 0 75.7l61.598 148.875a98.998 98.998 0 0 0 53.557 53.599l148.567 61.607a99.006 99.006 0 0 0 75.843 0l148.567-61.607a98.996 98.996 0 0 0 53.554-53.599l61.6-148.875a98.984 98.984 0 0 0 0-75.7l-61.6-148.875a98.998 98.998 0 0 0-53.554-53.6ZM825.692-40.44a100 100 0 0 0-76.609 0L600.516 21.168a100 100 0 0 0-54.098 54.14L484.82 224.184a99.994 99.994 0 0 0 0 76.464l61.598 148.875a100 100 0 0 0 54.098 54.141l148.567 61.606a99.994 99.994 0 0 0 76.609 0l148.567-61.606a100.004 100.004 0 0 0 54.101-54.141l61.6-148.875a100.085 100.085 0 0 0 0-76.464l-61.6-148.875a100.005 100.005 0 0 0-54.101-54.141L825.692-40.44Z"/><path d="M1002.02-6.082 825.308-79.358a98.998 98.998 0 0 0-75.842 0L572.757-6.082a98.997 98.997 0 0 0-53.557 53.6l-73.255 177.048a99.002 99.002 0 0 0 0 75.7L519.2 477.313a99 99 0 0 0 53.557 53.6l176.709 73.276a99.004 99.004 0 0 0 75.842 0l176.712-73.276a98.974 98.974 0 0 0 53.55-53.6l73.26-177.047a98.984 98.984 0 0 0 0-75.7l-73.26-177.048a98.972 98.972 0 0 0-53.55-53.6Zm-176.329-74.2a99.998 99.998 0 0 0-76.608 0L572.374-7.004a100 100 0 0 0-54.098 54.14l-73.255 177.048a99.996 99.996 0 0 0 0 76.465l73.255 177.048a100 100 0 0 0 54.098 54.14l176.709 73.276a99.992 99.992 0 0 0 76.608 0l176.709-73.276a100 100 0 0 0 54.1-54.14l73.25-177.048a99.996 99.996 0 0 0 0-76.465L1056.5 47.135a100 100 0 0 0-54.1-54.14L825.691-80.281Z"/><path d="M1030.16-34.256 825.308-119.2a98.997 98.997 0 0 0-75.843 0l-204.85 84.945a98.997 98.997 0 0 0-53.557 53.6l-84.912 205.22a99.002 99.002 0 0 0 0 75.7l84.912 205.221a98.998 98.998 0 0 0 53.557 53.599l204.85 84.945a98.997 98.997 0 0 0 75.843 0l204.852-84.945a99.022 99.022 0 0 0 53.56-53.599l84.91-205.221a98.984 98.984 0 0 0 0-75.7l-84.91-205.22a99.022 99.022 0 0 0-53.56-53.6Zm-204.469-85.869a100.003 100.003 0 0 0-76.609 0L544.232-35.18a99.996 99.996 0 0 0-54.098 54.141l-84.912 205.221a100.003 100.003 0 0 0 0 76.464l84.912 205.221a99.996 99.996 0 0 0 54.098 54.141l204.85 84.945a100.003 100.003 0 0 0 76.609 0l204.849-84.945a100 100 0 0 0 54.1-54.141l84.91-205.221a99.994 99.994 0 0 0 0-76.464l-84.91-205.22a100 100 0 0 0-54.1-54.142l-204.849-84.945Z"/><path d="m1058.3-62.428-232.993-96.615a98.995 98.995 0 0 0-75.842 0L516.473-62.428a99.002 99.002 0 0 0-53.558 53.6l-96.568 233.392a99.002 99.002 0 0 0 0 75.7l96.568 233.394a99.003 99.003 0 0 0 53.558 53.599l232.992 96.615a98.995 98.995 0 0 0 75.842 0l232.993-96.615a99.022 99.022 0 0 0 53.56-53.599l96.56-233.394a98.984 98.984 0 0 0 0-75.7L1111.86-8.829a99.022 99.022 0 0 0-53.56-53.6Zm-232.61-97.539a100 100 0 0 0-76.608 0L516.09-63.352a100 100 0 0 0-54.099 54.14l-96.568 233.394a100.006 100.006 0 0 0 0 76.465l96.568 233.393a100 100 0 0 0 54.099 54.141l232.992 96.615a100 100 0 0 0 76.608 0l232.99-96.615a100 100 0 0 0 54.1-54.141l96.57-233.393a99.996 99.996 0 0 0 0-76.465L1112.78-9.211a100 100 0 0 0-54.1-54.14l-232.99-96.616Z"/><path d="M1086.44-90.6 825.307-198.885a99.006 99.006 0 0 0-75.843 0L488.331-90.6a99.002 99.002 0 0 0-53.558 53.599L326.549 224.565a98.993 98.993 0 0 0 0 75.7l108.224 261.566a99 99 0 0 0 53.558 53.599l261.133 108.285a99.006 99.006 0 0 0 75.843 0L1086.44 615.43a99.02 99.02 0 0 0 53.56-53.599l108.22-261.566a98.984 98.984 0 0 0 0-75.7L1140-37.001a99.022 99.022 0 0 0-53.56-53.6ZM825.69-199.81a100.003 100.003 0 0 0-76.609 0L487.948-91.524a100 100 0 0 0-54.099 54.14L325.624 224.184a100.003 100.003 0 0 0 0 76.464l108.225 261.566a100 100 0 0 0 54.099 54.141l261.133 108.284a99.994 99.994 0 0 0 76.609 0l261.13-108.284a100 100 0 0 0 54.1-54.141l108.23-261.566a99.994 99.994 0 0 0 0-76.464L1140.92-37.383a100 100 0 0 0-54.1-54.141L825.69-199.81Z"/><path d="M1114.58-118.775 825.308-238.729a99.004 99.004 0 0 0-75.842 0L460.191-118.775a99.002 99.002 0 0 0-53.558 53.6L286.752 224.564a98.99 98.99 0 0 0 0 75.699l119.881 289.739a99.001 99.001 0 0 0 53.558 53.6l289.275 119.954a99.004 99.004 0 0 0 75.842 0l289.272-119.954a98.992 98.992 0 0 0 53.56-53.6l119.88-289.739a98.981 98.981 0 0 0 0-75.699l-119.88-289.74a98.992 98.992 0 0 0-53.56-53.599ZM825.691-239.652a99.992 99.992 0 0 0-76.608 0L459.807-119.698a100.002 100.002 0 0 0-54.098 54.14L285.828 224.181a99.996 99.996 0 0 0 0 76.465l119.881 289.739a100.004 100.004 0 0 0 54.098 54.14l289.276 119.954a99.992 99.992 0 0 0 76.608 0l289.279-119.954a100 100 0 0 0 54.1-54.14l119.88-289.739a99.996 99.996 0 0 0 0-76.465L1169.07-65.558a99.999 99.999 0 0 0-54.1-54.14L825.691-239.652Z"/><path d="M1142.72-146.947 825.308-278.57a98.997 98.997 0 0 0-75.843 0L432.048-146.947a99 99 0 0 0-53.557 53.6L246.953 224.563a99.002 99.002 0 0 0 0 75.7l131.538 317.912a99.001 99.001 0 0 0 53.557 53.599l317.417 131.623a98.997 98.997 0 0 0 75.843 0l317.412-131.623a98.993 98.993 0 0 0 53.56-53.599l131.54-317.912a98.984 98.984 0 0 0 0-75.7L1196.28-93.347a98.993 98.993 0 0 0-53.56-53.6ZM825.691-279.494a100.003 100.003 0 0 0-76.609 0L431.665-147.871a99.999 99.999 0 0 0-54.098 54.141L246.029 224.182a99.994 99.994 0 0 0 0 76.464l131.538 317.912a100 100 0 0 0 54.098 54.141l317.417 131.623a100.003 100.003 0 0 0 76.609 0l317.419-131.623a100 100 0 0 0 54.1-54.141l131.53-317.912a99.994 99.994 0 0 0 0-76.464L1197.21-93.73a100 100 0 0 0-54.1-54.141L825.691-279.494Z"/><path d="M1170.87-175.119 825.307-318.412a98.995 98.995 0 0 0-75.842 0L403.906-175.119a98.998 98.998 0 0 0-53.557 53.599L207.154 224.564a99.002 99.002 0 0 0 0 75.7l143.195 346.085a98.998 98.998 0 0 0 53.557 53.599l345.559 143.293a98.995 98.995 0 0 0 75.842 0l345.563-143.293a99.005 99.005 0 0 0 53.55-53.599l143.2-346.085a98.984 98.984 0 0 0 0-75.7l-143.2-346.084a99.001 99.001 0 0 0-53.55-53.599ZM825.69-319.336a100 100 0 0 0-76.608 0L403.523-176.043a99.996 99.996 0 0 0-54.098 54.141L206.23 224.182a99.996 99.996 0 0 0 0 76.465l143.195 346.084a99.996 99.996 0 0 0 54.098 54.141l345.559 143.293a100 100 0 0 0 76.608 0l345.56-143.293a100 100 0 0 0 54.1-54.141l143.19-346.084a99.996 99.996 0 0 0 0-76.465l-143.19-346.084a100 100 0 0 0-54.1-54.141L825.69-319.336Z"/><path d="M1199.01-203.291 825.309-358.254a98.997 98.997 0 0 0-75.843 0l-373.7 154.963a99 99 0 0 0-53.558 53.599L167.357 224.565a99.002 99.002 0 0 0 0 75.7l154.851 374.257a99.003 99.003 0 0 0 53.558 53.599l373.7 154.963a99.006 99.006 0 0 0 75.843 0l373.701-154.963a99.022 99.022 0 0 0 53.56-53.599l154.85-374.257a98.984 98.984 0 0 0 0-75.7l-154.85-374.257a99.02 99.02 0 0 0-53.56-53.599ZM825.692-359.178a100.003 100.003 0 0 0-76.609 0l-373.7 154.963a100 100 0 0 0-54.099 54.141L166.433 224.183a100.003 100.003 0 0 0 0 76.464l154.851 374.257a100 100 0 0 0 54.099 54.141l373.7 154.962a99.994 99.994 0 0 0 76.609 0l373.698-154.962a100 100 0 0 0 54.1-54.141l154.85-374.257a99.994 99.994 0 0 0 0-76.464l-154.85-374.257a100 100 0 0 0-54.1-54.141L825.692-359.178Z"/><path d="M1227.15-231.464 825.31-398.096a99.004 99.004 0 0 0-75.842 0L347.626-231.464a99.005 99.005 0 0 0-53.558 53.6L127.56 224.565a99.002 99.002 0 0 0 0 75.7l166.508 402.43a99 99 0 0 0 53.558 53.599l401.842 166.632a98.995 98.995 0 0 0 75.842 0l401.84-166.632a98.987 98.987 0 0 0 53.56-53.599l166.51-402.43a98.984 98.984 0 0 0 0-75.7l-166.51-402.429a98.992 98.992 0 0 0-53.56-53.6ZM825.693-399.019a99.996 99.996 0 0 0-76.608-.001L347.243-232.387a100.002 100.002 0 0 0-54.099 54.14l-166.508 402.43a100.006 100.006 0 0 0 0 76.465l166.508 402.429a100 100 0 0 0 54.099 54.141L749.085 923.85a100 100 0 0 0 76.608 0l401.847-166.632a100.014 100.014 0 0 0 54.09-54.141l166.51-402.429a99.996 99.996 0 0 0 0-76.465l-166.51-402.43a100.015 100.015 0 0 0-54.09-54.14L825.693-399.019Z"/><path d="M1255.29-259.638 825.31-437.94a99.006 99.006 0 0 0-75.843 0L319.484-259.638a99.006 99.006 0 0 0-53.558 53.599L87.761 224.564a99 99 0 0 0 0 75.7l178.165 430.602a99.005 99.005 0 0 0 53.558 53.6l429.983 178.301a98.997 98.997 0 0 0 75.843 0l429.98-178.301a98.992 98.992 0 0 0 53.56-53.6l178.17-430.602a99.075 99.075 0 0 0 0-75.7l-178.17-430.603a98.993 98.993 0 0 0-53.56-53.599ZM825.693-438.863a99.994 99.994 0 0 0-76.609 0L319.101-260.562a100 100 0 0 0-54.099 54.141L86.837 224.182a99.998 99.998 0 0 0 0 76.464l178.165 430.603a100 100 0 0 0 54.099 54.141l429.983 178.301a100.003 100.003 0 0 0 76.609 0L1255.68 785.39a99.95 99.95 0 0 0 54.09-54.141l178.17-430.603a99.994 99.994 0 0 0 0-76.464l-178.17-430.603a99.95 99.95 0 0 0-54.09-54.141L825.693-438.863Z"/><path d="M1283.43-287.81 825.31-477.781a98.997 98.997 0 0 0-75.843 0L291.341-287.81a99.001 99.001 0 0 0-53.557 53.599L47.963 224.565a99 99 0 0 0 0 75.7L237.784 759.04a98.998 98.998 0 0 0 53.557 53.599l458.126 189.971a98.98 98.98 0 0 0 75.843 0l458.12-189.971a98.987 98.987 0 0 0 53.56-53.599l189.82-458.776a98.984 98.984 0 0 0 0-75.7l-189.82-458.775a98.99 98.99 0 0 0-53.56-53.599ZM825.693-478.705a100.003 100.003 0 0 0-76.609 0L290.958-288.734a100.002 100.002 0 0 0-54.098 54.141L47.038 224.182a100.001 100.001 0 0 0 0 76.465L236.86 759.422a100.002 100.002 0 0 0 54.098 54.141l458.126 189.967a99.994 99.994 0 0 0 76.609 0l458.127-189.967a100 100 0 0 0 54.1-54.141l189.82-458.775a99.996 99.996 0 0 0 0-76.465l-189.82-458.775a100 100 0 0 0-54.1-54.141L825.693-478.705Z"/><path d="M1311.58-315.982 825.309-517.623a98.997 98.997 0 0 0-75.843 0L263.199-315.982a98.995 98.995 0 0 0-53.557 53.599L8.164 224.565a99 99 0 0 0 0 75.7l201.478 486.948a98.998 98.998 0 0 0 53.557 53.599l486.267 201.638a98.98 98.98 0 0 0 75.843 0l486.271-201.638a99.005 99.005 0 0 0 53.55-53.599l201.48-486.948a98.984 98.984 0 0 0 0-75.7l-201.48-486.948a99.001 99.001 0 0 0-53.55-53.599ZM825.692-518.547a100.003 100.003 0 0 0-76.609 0L262.816-316.906a100 100 0 0 0-54.098 54.141L7.24 224.183a99.998 99.998 0 0 0 0 76.464l201.478 486.948a100 100 0 0 0 54.098 54.141l486.267 201.644a99.994 99.994 0 0 0 76.609 0l486.268-201.644a100 100 0 0 0 54.1-54.141l201.48-486.948a100.085 100.085 0 0 0 0-76.464l-201.48-486.948a100 100 0 0 0-54.1-54.141L825.692-518.547Z"/><path d="M1339.49-343.927 825.308-557.143a99.006 99.006 0 0 0-75.843 0l-514.18 213.216a99 99 0 0 0-53.558 53.599l-213.04 514.892a99 99 0 0 0 0 75.7l213.04 514.892a99 99 0 0 0 53.558 53.599l514.18 213.215a98.98 98.98 0 0 0 75.843 0l514.182-213.214a99.024 99.024 0 0 0 53.56-53.6l213.04-514.892a99.075 99.075 0 0 0 0-75.7l-213.04-514.892a99.02 99.02 0 0 0-53.56-53.599ZM825.691-558.066a99.994 99.994 0 0 0-76.609 0l-514.18 213.215a100 100 0 0 0-54.099 54.141l-213.04 514.892a100 100 0 0 0 0 76.465l213.04 514.892a100.002 100.002 0 0 0 54.099 54.14l514.18 213.211a99.994 99.994 0 0 0 76.609 0l514.179-213.211a100 100 0 0 0 54.1-54.14l213.04-514.893a99.994 99.994 0 0 0 0-76.464L1393.97-290.71a100 100 0 0 0-54.1-54.141L825.691-558.066Z"/><path d="m1366.89-371.363-541.583-224.58a98.995 98.995 0 0 0-75.842 0l-541.586 224.58a99 99 0 0 0-53.558 53.599L-70.071 224.564a99 99 0 0 0 0 75.7l224.392 542.328a99 99 0 0 0 53.558 53.599l541.586 224.579a98.98 98.98 0 0 0 75.843 0l541.582-224.579a98.987 98.987 0 0 0 53.56-53.599l224.39-542.328a98.984 98.984 0 0 0 0-75.7l-224.39-542.328a98.987 98.987 0 0 0-53.56-53.599ZM825.691-596.867a100.003 100.003 0 0 0-76.609 0l-541.586 224.58a100.002 100.002 0 0 0-54.099 54.14L-70.995 224.182a99.998 99.998 0 0 0 0 76.464l224.392 542.328a100 100 0 0 0 54.099 54.141l541.586 224.575a99.994 99.994 0 0 0 76.609 0l541.589-224.575a100 100 0 0 0 54.1-54.141l224.39-542.328a99.994 99.994 0 0 0 0-76.464l-224.39-542.329a100 100 0 0 0-54.1-54.14l-541.589-224.58Z"/><path d="M1391.26-395.75 825.31-630.432a99.006 99.006 0 0 0-75.843 0L183.52-395.75a98.995 98.995 0 0 0-53.557 53.599L-104.52 224.565a99.002 99.002 0 0 0 0 75.7l234.483 566.716a98.998 98.998 0 0 0 53.557 53.599l565.947 234.68a98.98 98.98 0 0 0 75.843 0l565.95-234.68a98.972 98.972 0 0 0 53.55-53.599l234.49-566.716a99.075 99.075 0 0 0 0-75.7l-234.49-566.716a98.972 98.972 0 0 0-53.55-53.599ZM825.693-631.355a99.994 99.994 0 0 0-76.609 0L183.137-396.674a99.996 99.996 0 0 0-54.098 54.141l-234.483 566.716a100.003 100.003 0 0 0 0 76.464l234.483 566.716a99.996 99.996 0 0 0 54.098 54.141l565.947 234.686a100.085 100.085 0 0 0 76.609 0l565.947-234.686a100 100 0 0 0 54.1-54.141l234.48-566.716a99.994 99.994 0 0 0 0-76.464l-234.48-566.716a100 100 0 0 0-54.1-54.141L825.693-631.355Z"/></g><defs><clipPath id="a"><path fill="#fff" d="M0 0h465v526H0z" transform="translate(901)"/></clipPath><clipPath id="b"><path fill="#fff" d="M0 0h901v526H0z"/></clipPath></defs></svg>