<svg fill="none" viewBox="0 0 50 32"><g clip-path="url(#a)"><rect width="50" height="32" fill="#F9F9F9" rx="3"/><path fill="#00579F" d="M22.47 21.54h-3.08L21.3 10.5h3.08l-1.92 11.04ZM33.63 10.77a8.11 8.11 0 0 0-2.76-.47c-3.04 0-5.19 1.5-5.2 3.65-.02 1.59 1.53 2.47 2.7 3 1.2.54 1.6.89 1.6 1.37-.02.74-.97 1.08-1.85 1.08a6.53 6.53 0 0 1-2.9-.59l-.4-.17-.43 2.47c.72.3 2.05.58 3.44.6 3.23 0 5.33-1.49 5.35-3.78.02-1.25-.8-2.22-2.58-3-1.08-.5-1.74-.85-1.74-1.37.02-.47.56-.95 1.78-.95 1-.02 1.73.2 2.29.43l.28.11.42-2.38ZM37.72 17.63l1.23-3.1.4-1.05.22.95.7 3.2h-2.55Zm3.8-7.13h-2.38c-.74 0-1.3.2-1.61.92l-4.57 10.12h3.23l.64-1.66h3.95c.1.39.37 1.66.37 1.66H44L41.52 10.5ZM16.82 10.5l-3.02 7.53-.33-1.53c-.55-1.76-2.3-3.68-4.25-4.63l2.76 9.65h3.25l4.84-11.02h-3.25Z"/><path fill="#FAA61A" d="M11 10.5H6.05l-.05.22c3.86.92 6.42 3.13 7.47 5.78l-1.07-5.07c-.18-.7-.73-.9-1.4-.93Z"/></g><defs><clipPath id="a"><path fill="#fff" d="M0 0h50v32H0z"/></clipPath></defs></svg>