<?xml version="1.0" standalone="no"?>
<!DOCTYPE svg PUBLIC "-//W3C//DTD SVG 20010904//EN"
 "http://www.w3.org/TR/2001/REC-SVG-20010904/DTD/svg10.dtd">
<svg version="1.0" xmlns="http://www.w3.org/2000/svg"
 width="700.000000pt" height="700.000000pt" viewBox="0 0 700.000000 700.000000"
 preserveAspectRatio="xMidYMid meet">
<metadata>
Created by potrace 1.14, written by Peter Selinger 2001-2017
</metadata>
<g transform="translate(0.000000,700.000000) scale(0.100000,-0.100000)"
fill="#000000" stroke="none">
<path d="M3077 6434 c-1 -1 -139 -5 -307 -9 -336 -7 -465 -11 -645 -19 -66 -3
-192 -8 -280 -12 -88 -3 -185 -7 -215 -9 -30 -2 -73 -4 -95 -4 l-40 -1 0 -95
0 -95 60 0 c290 -2 470 -24 570 -70 103 -47 167 -161 191 -335 3 -27 8 -59 10
-70 13 -67 18 -615 18 -2130 0 -1747 -5 -2073 -29 -2205 -3 -14 -10 -52 -16
-84 -22 -123 -105 -233 -207 -277 -99 -43 -241 -62 -459 -63 -76 0 -123 -5
-124 -11 -7 -57 -3 -175 6 -177 5 0 574 -2 1263 -3 l1252 -1 1 23 c0 13 1 43
1 68 0 25 -1 57 -1 73 l-1 27 -147 1 c-258 1 -402 23 -504 75 -59 30 -124 101
-157 172 -45 95 -57 179 -68 457 -7 175 -12 1706 -6 1732 4 16 37 17 491 15
433 -2 616 3 746 18 22 3 60 7 85 10 156 15 302 43 430 82 125 37 323 139 388
201 7 6 17 12 22 12 21 0 221 211 269 283 113 169 204 397 235 592 25 160 27
177 28 307 1 176 -14 299 -53 448 -98 368 -411 711 -799 874 -99 43 -321 106
-415 120 -23 4 -50 8 -60 10 -137 25 -304 43 -580 62 -81 5 -852 13 -858 8z
m758 -218 c128 -12 159 -17 274 -43 610 -134 891 -539 893 -1283 1 -405 -118
-731 -353 -970 -140 -142 -318 -230 -529 -264 -19 -3 -46 -8 -60 -10 -136 -25
-241 -30 -590 -31 l-325 0 3 1110 c4 1294 6 1472 13 1480 3 3 53 8 110 11 57
4 105 7 106 8 6 5 397 -2 458 -8z"/>
</g>
</svg>
