<svg width="16" height="16" viewBox="0 0 16 16" fill="none" xmlns="http://www.w3.org/2000/svg">
<path fill-rule="evenodd" clip-rule="evenodd" d="M8.85683 7.99803L13.4455 3.31958C13.5457 3.21661 13.6012 3.0784 13.5996 2.93501C13.5981 2.79162 13.5399 2.65458 13.4375 2.55371C13.3869 2.50383 13.3268 2.46446 13.2609 2.43781C13.1949 2.41115 13.1242 2.39779 13.053 2.39846C12.9818 2.39914 12.9115 2.41385 12.846 2.44175C12.7805 2.46965 12.7213 2.51015 12.6717 2.56098L8.09101 7.2322L3.32075 2.55371C3.27013 2.50388 3.21012 2.46452 3.14414 2.43789C3.07816 2.41127 3.00753 2.39792 2.93634 2.39859C2.86514 2.39927 2.79478 2.41397 2.72932 2.44184C2.66386 2.46971 2.60461 2.51019 2.55495 2.56098C2.45459 2.66386 2.39905 2.80203 2.40042 2.94542C2.40178 3.08881 2.45993 3.22583 2.56223 3.3268L7.32557 7.99803L2.56223 12.6692C2.45993 12.7702 2.40178 12.9073 2.40042 13.0507C2.39905 13.1941 2.45459 13.3322 2.55495 13.4351C2.60456 13.486 2.66379 13.5266 2.72925 13.5545C2.79472 13.5824 2.86512 13.5971 2.93634 13.5978C3.00756 13.5985 3.07819 13.5851 3.14418 13.5584C3.21017 13.5317 3.27018 13.4923 3.32075 13.4423L8.09101 8.7639L12.6717 13.4351C12.7219 13.4868 12.7821 13.5279 12.8486 13.5559C12.9151 13.584 12.9867 13.5985 13.0589 13.5984C13.1294 13.5987 13.1992 13.585 13.2643 13.5582C13.3294 13.5315 13.3885 13.4921 13.4382 13.4423C13.5406 13.3415 13.5989 13.2045 13.6004 13.0611C13.6019 12.9177 13.5465 12.7795 13.4462 12.6765L8.85683 7.99803Z" fill="#555555"/>
</svg>
